<svg width="31" height="30" viewBox="0 0 31 30" fill="none" xmlns="http://www.w3.org/2000/svg">
<path d="M24.1144 21.057C24.338 20.3192 25.1233 19.9001 25.8685 20.1212C27.2164 20.5217 28.4113 21.027 29.2992 21.6507C30.1503 22.2487 30.9999 23.164 31 24.4178C30.9997 25.6716 30.1504 26.587 29.2992 27.185C28.4112 27.8087 27.2165 28.314 25.8685 28.7145C23.1543 29.5208 19.4882 29.9999 15.5 30C11.5119 30 7.84572 29.5207 5.13153 28.7145C3.78387 28.3141 2.58996 27.8085 1.70204 27.185C0.850778 26.5871 0.000283791 25.6718 0 24.4178C0.000129802 23.1636 0.850623 22.2487 1.70204 21.6507C2.59006 21.027 3.78351 20.5217 5.13153 20.1212C5.87673 19.9 6.66327 20.3191 6.88691 21.057C7.10998 21.7947 6.68677 22.5737 5.9419 22.7953C4.7405 23.1522 3.87091 23.5495 3.33295 23.9273C2.9646 24.186 2.8581 24.3555 2.82869 24.4178C2.85827 24.4804 2.96512 24.6513 3.33295 24.9096C3.87099 25.2872 4.74114 25.685 5.9419 26.0417C8.32716 26.7502 11.7073 27.2089 15.5 27.2089C19.2931 27.2089 22.6741 26.7503 25.0594 26.0417C26.2605 25.6848 27.1305 25.2874 27.6683 24.9096C28.0364 24.6511 28.1418 24.4802 28.1713 24.4178C28.1417 24.3553 28.0354 24.1852 27.6683 23.9273C27.1306 23.5496 26.2604 23.1522 25.0594 22.7953C24.3141 22.5739 23.891 21.795 24.1144 21.057Z" fill="#666666"/>
<path fill-rule="evenodd" clip-rule="evenodd" d="M15.5 5.5809C18.2232 5.58124 20.4319 7.76696 20.4321 10.4637C20.4321 13.1607 18.2234 15.3474 15.5 15.3478C12.7765 15.3476 10.5692 13.1607 10.5692 10.4637C10.5694 7.76689 12.7767 5.58112 15.5 5.5809ZM15.5 8.37072C14.3331 8.37094 13.3867 9.30813 13.3864 10.4637C13.3864 11.6195 14.3329 12.5565 15.5 12.5567C16.667 12.5564 17.6136 11.6194 17.6136 10.4637C17.6133 9.3082 16.6668 8.37106 15.5 8.37072Z" fill="#666666"/>
<path fill-rule="evenodd" clip-rule="evenodd" d="M15.5013 0C21.3041 0.000553419 26.069 4.55336 26.0692 10.2423C26.069 14.243 23.4323 17.7832 21.0913 20.174C19.8896 21.4013 18.6923 22.3991 17.7978 23.0896C17.3495 23.4356 16.9739 23.707 16.7079 23.8933C16.5754 23.9862 16.4696 24.0586 16.3955 24.1084C16.3586 24.1332 16.3285 24.1526 16.3078 24.1663C16.2979 24.1728 16.2897 24.1787 16.2837 24.1826C16.281 24.1844 16.278 24.1864 16.2761 24.1877L16.2735 24.1889L16.2723 24.1902C15.8041 24.4931 15.1985 24.4929 14.7303 24.1902L14.7265 24.1877C14.7247 24.1865 14.7216 24.1844 14.7188 24.1826C14.7129 24.1787 14.7036 24.1729 14.6934 24.1663C14.6729 24.1527 14.6436 24.133 14.6071 24.1084C14.533 24.0586 14.4261 23.9864 14.2933 23.8933C14.0274 23.707 13.6517 23.4355 13.2035 23.0896C12.309 22.3992 11.1117 21.4012 9.90994 20.174C7.56889 17.7832 4.93352 14.243 4.93338 10.2423C4.9335 4.55301 9.69798 0 15.5013 0ZM15.5013 2.78982C11.1881 2.78982 7.75076 6.15903 7.75064 10.2423C7.75078 13.094 9.69511 15.9448 11.9333 18.2307C13.0208 19.3412 14.1136 20.2536 14.936 20.8884C15.1434 21.0485 15.3343 21.1899 15.5013 21.3123C15.6682 21.19 15.858 21.0484 16.0652 20.8884C16.8878 20.2535 17.9816 19.3414 19.0692 18.2307C21.3072 15.9449 23.2505 13.0938 23.2506 10.2423C23.2505 6.15937 19.8139 2.79037 15.5013 2.78982Z" fill="#666666"/>
</svg>
