<svg width="16" height="10" viewBox="0 0 16 10" fill="none" xmlns="http://www.w3.org/2000/svg">
<path d="M15.1143 0C15.2311 0.000152382 15.3467 0.0262525 15.4541 0.0761719C15.5616 0.126136 15.6585 0.199244 15.7393 0.291016C15.9061 0.480759 16 0.732971 16 0.995117C15.9999 1.2571 15.906 1.5086 15.7393 1.69824L8.62598 9.70801C8.54559 9.80023 8.44828 9.87357 8.34082 9.92383C8.2333 9.97405 8.11707 9.99996 8 10C7.88288 10 7.76675 9.97405 7.65918 9.92383C7.57853 9.88616 7.50375 9.83537 7.4375 9.77344L7.37402 9.70801L0.259766 1.69824C0.0931591 1.50862 8.69435e-05 1.25701 0 0.995117C0 0.733034 0.093006 0.480744 0.259766 0.291016C0.340453 0.199303 0.437493 0.126145 0.544922 0.0761719C0.652479 0.026195 0.768723 9.84859e-05 0.885742 0C1.00264 0.000127084 1.11813 0.0262711 1.22559 0.0761719C1.33314 0.126149 1.43095 0.199211 1.51172 0.291016L8 7.59473L14.4883 0.291016C14.569 0.199263 14.666 0.126147 14.7734 0.0761719C14.881 0.026195 14.9972 9.84859e-05 15.1143 0Z" fill="#777A86"/>
</svg>
